<svg width="30" height="35" viewBox="0 0 30 35" fill="none" xmlns="http://www.w3.org/2000/svg">
<path d="M11.897 14.5211C10.9199 14.5211 10.1484 15.3865 10.1484 16.4423C10.1484 17.498 10.937 18.3634 11.897 18.3634C12.8742 18.3634 13.6456 17.498 13.6456 16.4423C13.6627 15.3865 12.8742 14.5211 11.897 14.5211ZM18.1542 14.5211C17.177 14.5211 16.4056 15.3865 16.4056 16.4423C16.4056 17.498 17.1942 18.3634 18.1542 18.3634C19.1313 18.3634 19.9027 17.498 19.9027 16.4423C19.9027 15.3865 19.1313 14.5211 18.1542 14.5211Z" fill="white"/>
<path d="M26.4857 0H3.51429C1.57714 0 0 1.59231 0 3.56538V26.9654C0 28.9385 1.57714 30.5308 3.51429 30.5308H22.9543L22.0457 27.3288L24.24 29.3885L26.3143 31.3269L30 34.6154V3.56538C30 1.59231 28.4229 0 26.4857 0ZM19.8686 22.6038C19.8686 22.6038 19.2514 21.8596 18.7371 21.2019C20.9829 20.5615 21.84 19.1423 21.84 19.1423C21.1371 19.6096 20.4686 19.9385 19.8686 20.1635C19.0114 20.5269 18.1886 20.7692 17.3829 20.9077C15.7371 21.2192 14.2286 21.1327 12.9429 20.8904C11.9657 20.7 11.1257 20.4231 10.4229 20.1462C10.0286 19.9904 9.6 19.8 9.17143 19.5577C9.12 19.5231 9.06857 19.5058 9.01714 19.4712C8.98286 19.4538 8.96571 19.4365 8.94857 19.4192C8.64 19.2462 8.46857 19.125 8.46857 19.125C8.46857 19.125 9.29143 20.5096 11.4686 21.1673C10.9543 21.825 10.32 22.6038 10.32 22.6038C6.53143 22.4827 5.09143 19.9731 5.09143 19.9731C5.09143 14.4 7.56 9.88269 7.56 9.88269C10.0286 8.01346 12.3771 8.06538 12.3771 8.06538L12.5486 8.27308C9.46286 9.17308 8.04 10.5404 8.04 10.5404C8.04 10.5404 8.41714 10.3327 9.05143 10.0385C10.8857 9.225 12.3429 9 12.9429 8.94808C13.0457 8.93077 13.1314 8.91346 13.2343 8.91346C14.28 8.775 15.4629 8.74039 16.6971 8.87885C18.3257 9.06923 20.0743 9.55385 21.8571 10.5404C21.8571 10.5404 20.5029 9.24231 17.5886 8.34231L17.8286 8.06538C17.8286 8.06538 20.1771 8.01346 22.6457 9.88269C22.6457 9.88269 25.1143 14.4 25.1143 19.9731C25.1143 19.9731 23.6571 22.4827 19.8686 22.6038Z" fill="white"/>
</svg>
