<svg width="30" height="30" viewBox="0 0 30 30" fill="none" xmlns="http://www.w3.org/2000/svg">
<path fill-rule="evenodd" clip-rule="evenodd" d="M8 0C3.58172 0 0 3.58172 0 8V22C0 26.4183 3.58172 30 8 30H22C26.4183 30 30 26.4183 30 22V8C30 3.58172 26.4183 0 22 0H8ZM21.8869 10.6438C22.6217 10.5584 23.3218 10.3689 23.9731 10.0875C23.4863 10.796 22.8703 11.4183 22.1606 11.9171C22.3908 16.8875 18.5806 22.4292 11.8366 22.4292C9.78586 22.4292 7.87598 21.8443 6.26855 20.8416C8.1954 21.0626 10.1193 20.5423 11.6463 19.3774C10.0559 19.3487 8.71474 18.3273 8.25294 16.9234C8.82244 17.0296 9.38235 16.998 9.89357 16.8631C8.14672 16.5222 6.94059 14.9905 6.98043 13.3533C7.46952 13.6182 8.03016 13.7768 8.62474 13.7954C7.00772 12.7432 6.54961 10.6653 7.50124 9.07696C9.29309 11.2151 11.9694 12.6219 14.9873 12.7691C14.4577 10.5591 16.1809 8.43027 18.526 8.43027C19.5706 8.43027 20.5156 8.85948 21.1773 9.54637C22.005 9.38774 22.7825 9.09347 23.484 8.68866C23.2133 9.51407 22.6372 10.2067 21.8869 10.6438Z" fill="white"/>
</svg>
